<svg width="11" height="20" viewBox="0 0 11 20" fill="none" xmlns="http://www.w3.org/2000/svg">
<path d="M10.2491 0.303758L7.78524 0.299805C5.01719 0.299805 3.22835 2.13509 3.22835 4.97568V7.13157H0.751064C0.536997 7.13157 0.363647 7.30512 0.363647 7.51919V10.6428C0.363647 10.8569 0.537194 11.0302 0.751064 11.0302H3.22835V18.9122C3.22835 19.1263 3.4017 19.2996 3.61577 19.2996H6.84793C7.06199 19.2996 7.23534 19.1261 7.23534 18.9122V11.0302H10.1319C10.3459 11.0302 10.5193 10.8569 10.5193 10.6428L10.5205 7.51919C10.5205 7.4164 10.4796 7.31797 10.407 7.24523C10.3345 7.17249 10.2356 7.13157 10.1329 7.13157H7.23534V5.304C7.23534 4.42559 7.44467 3.97967 8.58893 3.97967L10.2487 3.97907C10.4626 3.97907 10.6359 3.80553 10.6359 3.59166V0.691174C10.6359 0.477502 10.4628 0.304153 10.2491 0.303758Z" fill="#FFBD3E"/>
</svg>
