<svg width="19" height="20" viewBox="0 0 19 20" fill="none" xmlns="http://www.w3.org/2000/svg">
<path d="M13.7565 0.299805H5.24317C2.35209 0.299805 0 2.652 0 5.54309V14.0564C0 16.9476 2.35209 19.2997 5.24317 19.2997H13.7565C16.6478 19.2997 18.9999 16.9475 18.9999 14.0564V5.54309C19 2.652 16.6478 0.299805 13.7565 0.299805ZM17.3142 14.0564C17.3142 16.0181 15.7183 17.6139 13.7566 17.6139H5.24317C3.28162 17.614 1.68576 16.0181 1.68576 14.0564V5.54309C1.68576 3.58153 3.28162 1.98557 5.24317 1.98557H13.7565C15.7182 1.98557 17.3141 3.58153 17.3141 5.54309V14.0564H17.3142Z" fill="#FFBD3E"/>
<path d="M9.50016 4.9043C6.80058 4.9043 4.60437 7.10051 4.60437 9.80009C4.60437 12.4996 6.80058 14.6957 9.50016 14.6957C12.1997 14.6957 14.3959 12.4996 14.3959 9.80009C14.3959 7.10051 12.1997 4.9043 9.50016 4.9043ZM9.50016 13.0098C7.73022 13.0098 6.29013 11.5699 6.29013 9.79997C6.29013 8.02992 7.73011 6.58995 9.50016 6.58995C11.2702 6.58995 12.7102 8.02992 12.7102 9.79997C12.7102 11.5699 11.2701 13.0098 9.50016 13.0098Z" fill="#FFBD3E"/>
<path d="M14.6011 3.47461C14.2764 3.47461 13.9573 3.6061 13.7279 3.83649C13.4974 4.06575 13.3649 4.38492 13.3649 4.71083C13.3649 5.03574 13.4975 5.3548 13.7279 5.58518C13.9572 5.81445 14.2764 5.94706 14.6011 5.94706C14.9271 5.94706 15.2451 5.81445 15.4755 5.58518C15.7059 5.3548 15.8374 5.03563 15.8374 4.71083C15.8374 4.38492 15.7059 4.06575 15.4755 3.83649C15.2462 3.6061 14.9271 3.47461 14.6011 3.47461Z" fill="#FFBD3E"/>
</svg>
