<svg width="19" height="20" viewBox="0 0 19 20" fill="none" xmlns="http://www.w3.org/2000/svg">
<path d="M3.7252 0.304688C1.67858 0.304688 0.00354004 1.97969 0.00354004 4.02635V15.5753C0.00354004 17.622 1.67854 19.2964 3.7252 19.2964H15.2742C17.3208 19.2964 18.9952 17.622 18.9952 15.5753V4.02635C18.9952 1.97973 17.3208 0.304688 15.2742 0.304688H3.7252ZM4.66126 3.4387C5.64257 3.4387 6.24702 4.08291 6.26567 4.92972C6.26567 5.75784 5.64253 6.42016 4.64228 6.42016H4.62387C3.66123 6.42016 3.03904 5.75788 3.03904 4.92972C3.03904 4.08293 3.68006 3.4387 4.66124 3.4387H4.66126ZM13.1178 7.39659C15.005 7.39659 16.4198 8.63011 16.4198 11.2809V16.2294H13.5517V11.6127C13.5517 10.4525 13.1366 9.66101 12.0986 9.66101C11.3063 9.66101 10.834 10.1945 10.6266 10.7098C10.5508 10.8942 10.5322 11.1517 10.5322 11.4097V16.2294H7.66411C7.66411 16.2294 7.70175 8.40876 7.66411 7.59898H10.5328V8.82113C10.9139 8.23308 11.5957 7.39657 13.1178 7.39657V7.39659ZM3.20821 7.59961H6.07632V16.2294H3.20821V7.59961Z" fill="#FFBD3E"/>
</svg>
