<svg width="119" height="40" viewBox="0 0 119 40" fill="none" xmlns="http://www.w3.org/2000/svg">
<g clip-path="url(#clip0)">
<path d="M40.4887 34.3631C40.4887 35.1672 39.8183 35.7702 39.0139 35.7702H38.5447V37.6464C38.5447 38.7855 37.6062 39.7236 36.4666 39.7236H36.2655C35.4611 39.7236 34.7237 39.0535 34.7237 38.1824V37.7134C34.7237 36.4403 33.9863 35.4352 33.0479 35.4352C32.1094 35.4352 31.372 36.4403 31.372 37.7134V38.2494C31.372 39.0535 30.7017 39.7906 29.8302 39.7906C29.0258 39.7906 28.2884 39.1205 28.2884 38.2494V37.7804C28.2884 36.5073 27.5511 35.5022 26.6126 35.5022C25.6741 35.5022 24.9367 36.5073 24.9367 37.7804V38.2494C24.9367 39.0535 24.2664 39.7906 23.3949 39.7906C22.5905 39.7906 21.8531 39.1205 21.8531 38.2494V37.7804C21.8531 36.5073 21.1158 35.5022 20.1773 35.5022C19.2388 35.5022 18.5014 36.5073 18.5014 37.7804V38.2494C18.5014 39.0535 17.8311 39.7906 16.9597 39.7906C16.1552 39.7906 15.4179 39.1205 15.4179 38.2494V37.7804C15.4179 36.5073 14.6135 35.5022 13.742 35.5022C12.8706 35.5022 12.0662 36.5073 12.0662 37.7804V38.2494C12.0662 39.0535 11.3958 39.7906 10.5244 39.7906C9.71996 39.7906 8.98258 39.1205 8.98258 38.2494V37.7134C8.98258 36.4403 8.24521 35.4352 7.30673 35.4352C6.36825 35.4352 5.63087 36.4403 5.63087 37.7134V38.2494C5.63087 39.0535 4.96053 39.7906 4.08909 39.7906H4.02205C2.88247 39.7906 1.94399 38.8525 1.94399 37.7134V35.8372H1.47475C0.670342 35.7702 0 35.1672 0 34.3631C0 33.559 0.670342 32.889 1.47475 32.889H2.01103C2.3462 23.4411 9.78699 15.8024 19.1718 15.2664L19.507 12.5191C17.1608 12.1171 15.0827 10.2409 14.8146 7.49369C14.5464 5.28249 15.8201 3.0713 17.7641 1.9992C18.3674 1.66417 19.0377 1.46315 19.641 1.39615C17.2948 2.73627 16.3563 5.81854 17.8981 8.36477C18.8366 9.97291 20.7806 10.844 22.5905 10.643C23.7971 10.509 24.8697 9.97291 25.6071 9.16884C25.0038 10.643 23.7971 11.9161 22.1213 12.4521C21.7191 12.5861 21.3169 12.6531 20.9147 12.7202L21.2498 15.4004C30.6346 15.9364 38.0754 23.5751 38.4106 33.023H38.9469C39.8183 32.956 40.4887 33.559 40.4887 34.3631Z" fill="#FFCB07"/>
<path d="M25.4799 7.23605C29.1869 6.1631 30.3147 4.94677 30.9849 1.73104C31.7418 4.96048 32.9039 6.19552 36.4899 7.23605C32.953 7.98064 31.7354 9.17531 30.9849 12.7411C30.2399 9.07618 29.0632 7.83995 25.4799 7.23605Z" fill="white"/>
<path d="M53.1239 11.7975H53.473C54.2409 11.7975 54.8691 12.4258 54.8691 13.1937C54.8691 13.9616 54.2409 14.5899 53.473 14.5899H53.1239C52.3561 14.5899 51.7278 13.9616 51.7278 13.1937C51.7278 12.4258 52.3561 11.7975 53.1239 11.7975ZM53.2636 16.4747H53.3334C54.1711 16.4747 54.8691 17.1728 54.8691 18.0105V26.3874C54.8691 27.2251 54.1711 27.9232 53.3334 27.9232H53.2636C52.4259 27.9232 51.7278 27.2251 51.7278 26.3874V18.0105C51.7278 17.1728 52.4259 16.4747 53.2636 16.4747Z" fill="white"/>
<path d="M58.5689 24.5026C58.9878 24.5026 59.4066 24.7818 59.6161 25.1309C59.9651 25.6893 60.5934 25.9686 61.5009 25.9686C62.6876 25.9686 63.1065 25.5497 63.1065 24.8516C63.1065 24.0838 62.6178 23.8045 60.9424 23.4555C57.1728 22.548 56.6143 21.3612 56.6143 19.7557C56.6143 18.0803 57.8011 16.2653 61.2915 16.2653C62.897 16.2653 64.014 16.6841 64.7819 17.2426C65.7592 18.0803 65.2007 19.6859 63.8744 19.6859C63.4555 19.6859 63.0367 19.4764 62.7574 19.1274C62.548 18.7783 62.0593 18.4991 61.1518 18.4991C60.1047 18.4991 59.7557 18.9878 59.7557 19.4764C59.7557 20.0349 60.1047 20.3141 61.9895 20.733C65.829 21.6405 66.3874 22.9668 66.3874 24.6422C66.3874 26.527 64.9215 28.2722 61.4311 28.2722C59.1972 28.2722 57.8011 27.5742 57.0332 26.5968C56.4049 25.7591 56.9634 24.5724 58.0105 24.5724L58.5689 24.5026Z" fill="white"/>
<path d="M67.7138 26.3874V13.4031C67.7138 12.4956 68.4119 11.7975 69.3194 11.7975C70.2269 11.7975 70.925 12.4956 70.925 13.4031V26.3874C70.925 27.2949 70.2269 27.993 69.3194 27.993C68.4817 27.993 67.7138 27.2949 67.7138 26.3874Z" fill="white"/>
<path d="M82.5829 24.9912C82.5829 25.8289 82.6527 26.9459 82.7226 27.5741C82.7226 27.7836 82.5829 27.993 82.3735 27.993H80.0698C79.8604 27.993 79.7208 27.8534 79.7208 27.7138C79.651 27.4345 79.3718 27.2949 79.1623 27.5043C78.6737 27.9232 77.836 28.2722 76.4398 28.2722C73.6475 28.2722 72.5306 26.4572 72.5306 24.6422C72.5306 22.0593 74.6248 20.8028 77.9756 20.8028H79.2322C79.4416 20.8028 79.5812 20.6631 79.5812 20.4537V20.1047C79.5812 19.267 79.302 18.4991 77.836 18.4991C76.6493 18.4991 76.3002 18.9179 76.0908 19.616C76.021 19.7556 75.8814 19.8953 75.7417 19.8953H73.2985C73.089 19.8953 72.8796 19.6858 72.9494 19.4764C73.2287 17.6614 74.555 16.1954 77.836 16.2652C80.9075 16.2652 82.5829 17.452 82.5829 20.2443V24.9912ZM79.5114 22.7574C79.2322 22.7574 78.6039 22.7574 78.185 22.7574C76.3002 22.7574 75.5323 23.3159 75.5323 24.4328C75.5323 25.2705 76.021 25.9686 77.2077 25.9686C79.2322 25.9686 79.4416 24.5724 79.4416 23.0366V22.7574H79.5114Z" fill="white"/>
<path d="M84.8168 19.4764C84.8168 18.7783 84.8168 18.0104 84.8168 17.3124C84.8168 16.8935 85.1658 16.4747 85.5847 16.4747H87.4695C87.6789 16.4747 87.8185 16.6143 87.8185 16.8237C87.8185 16.8935 87.8185 16.8935 87.8185 16.9633C87.8185 17.2426 88.2374 17.3822 88.4468 17.1727C89.0053 16.6143 89.843 16.1954 91.0995 16.1954C92.4957 16.1954 93.3334 16.7539 93.822 17.5218C93.9616 17.7312 94.2409 17.7312 94.3805 17.5218C95.0087 16.7539 95.9861 16.1954 97.5916 16.1954C99.6161 16.1954 101.222 17.452 101.222 20.3839V26.3874C101.222 27.2251 100.524 27.9232 99.6859 27.9232C98.8482 27.9232 98.1501 27.2251 98.1501 26.3874V20.8028C98.1501 19.7556 97.8011 18.7783 96.4747 18.7783C95.1484 18.7783 94.5899 19.616 94.5899 21.431V26.4572C94.5899 27.2949 93.8918 27.993 93.0541 27.993C92.2164 27.993 91.5183 27.2949 91.5183 26.4572V20.9424C91.5183 19.7556 91.2391 18.7783 89.8429 18.7783C88.5166 18.7783 87.9581 19.5462 87.9581 21.5707V26.4572C87.9581 27.2949 87.2601 27.993 86.4224 27.993H86.3525C85.5149 27.993 84.8168 27.2949 84.8168 26.4572V19.4764Z" fill="white"/>
<path d="M104.921 11.7975H105.271C106.038 11.7975 106.667 12.4258 106.667 13.1937C106.667 13.9616 106.038 14.5899 105.271 14.5899H104.921C104.154 14.5899 103.525 13.9616 103.525 13.1937C103.525 12.4258 104.154 11.7975 104.921 11.7975ZM105.131 16.4747C106.038 16.4747 106.736 17.1728 106.736 18.0803V26.3874C106.736 27.2949 106.038 27.993 105.131 27.993C104.223 27.993 103.525 27.2949 103.525 26.3874V18.0803C103.525 17.1728 104.223 16.4747 105.131 16.4747Z" fill="white"/>
<path d="M116.649 24.2932C117.906 24.2932 118.534 25.7592 117.766 26.6667C116.928 27.5742 115.672 28.2722 113.717 28.2722C110.157 28.2722 108.342 25.829 108.342 22.3386C108.342 18.918 110.436 16.2653 113.927 16.2653C115.951 16.2653 117.208 17.0331 117.976 17.9407C118.744 18.918 118.045 20.3141 116.859 20.3141C116.3 20.3141 115.881 20.0349 115.602 19.5462C115.323 19.0576 114.764 18.7085 113.927 18.7085C112.461 18.7085 111.623 19.9651 111.623 22.1989C111.623 24.6422 112.461 25.7592 113.857 25.7592C114.625 25.7592 115.183 25.4101 115.463 24.9215C115.672 24.5026 116.161 24.2932 116.649 24.2932Z" fill="white"/>
<path d="M52.7051 38.185C52.8447 38.8133 53.3334 39.2321 54.1012 39.2321C54.9389 39.2321 55.288 38.8831 55.288 38.3246C55.288 37.7662 55.0087 37.5567 53.8918 37.2775C52.2164 36.8587 51.8674 36.37 51.8674 35.6021C51.8674 34.7644 52.4957 33.9965 53.9616 33.9965C55.4974 33.9965 56.0559 34.8342 56.1257 35.6719H55.1484C55.0786 35.3229 54.7993 34.7644 53.8918 34.7644C53.0541 34.7644 52.8447 35.1833 52.8447 35.5323C52.8447 35.9511 53.0541 36.1606 54.171 36.4398C55.9162 36.8587 56.2653 37.4171 56.2653 38.3246C56.2653 39.3717 55.4276 40.0698 54.0314 40.0698C52.4957 40.0698 51.7976 39.3019 51.658 38.2548H52.7051V38.185Z" fill="#FFCB07"/>
<path d="M61.9896 38.0454C61.7103 39.0227 61.0821 40 59.5463 40C57.9407 40 56.9634 38.8133 56.9634 36.9983C56.9634 35.3229 57.8709 33.9267 59.6161 33.9267C61.2915 33.9267 61.8499 35.1134 61.9198 35.8813H60.9424C60.8028 35.2531 60.4538 34.7644 59.6161 34.7644C58.569 34.7644 58.0105 35.6719 58.0105 36.9983C58.0105 38.3246 58.569 39.2321 59.6161 39.2321C60.3142 39.2321 60.8028 38.8133 61.0122 38.1152H61.9896V38.0454Z" fill="#FFCB07"/>
<path d="M63.8743 31.4136V34.904C64.1536 34.4154 64.712 33.9267 65.6894 33.9267C66.5969 33.9267 67.644 34.4154 67.644 36.1606V39.8604H66.6667V36.3002C66.6667 35.3229 66.2478 34.7644 65.4101 34.7644C64.363 34.7644 63.8743 35.4625 63.8743 36.6492V39.8604H62.897V31.4136H63.8743Z" fill="#FFCB07"/>
<path d="M74.0663 36.9285C74.0663 38.6038 73.089 40 71.3438 40C69.6684 40 68.6911 38.6737 68.6911 36.9285C68.6911 35.1833 69.6684 33.8569 71.4136 33.8569C73.0192 33.8569 74.0663 35.1134 74.0663 36.9285ZM69.6684 36.9285C69.6684 38.185 70.2967 39.1623 71.3438 39.1623C72.3909 39.1623 73.0192 38.2548 73.0192 36.9285C73.0192 35.6021 72.3909 34.6946 71.3438 34.6946C70.2269 34.6946 69.6684 35.6021 69.6684 36.9285Z" fill="#FFCB07"/>
<path d="M80.1396 36.9285C80.1396 38.6038 79.1623 40 77.4171 40C75.7417 40 74.7644 38.6737 74.7644 36.9285C74.7644 35.1833 75.7417 33.8569 77.4869 33.8569C79.0925 33.8569 80.1396 35.1134 80.1396 36.9285ZM75.7417 36.9285C75.7417 38.185 76.37 39.1623 77.4171 39.1623C78.4642 39.1623 79.0925 38.2548 79.0925 36.9285C79.0925 35.6021 78.4642 34.6946 77.4171 34.6946C76.3002 34.6946 75.7417 35.6021 75.7417 36.9285Z" fill="#FFCB07"/>
<path d="M81.1169 39.8604V31.4136H82.0943V39.8604H81.1169Z" fill="#FFCB07"/>
</g>
<defs>
<clipPath id="clip0">
<rect width="118.255" height="40" fill="white"/>
</clipPath>
</defs>
</svg>
