<svg width="76" height="75" viewBox="0 0 76 75" fill="none" xmlns="http://www.w3.org/2000/svg">
<path d="M54.1173 30.1647C54.1173 30.8854 53.5536 31.4516 52.7849 31.4516H52.3237V33.2018C52.3237 34.2313 51.4525 35.1064 50.4275 35.1064H50.2738C49.5051 35.1064 48.8901 34.4887 48.8901 33.7165V33.2533C48.8901 32.1208 48.2239 31.1942 47.3527 31.1942C46.4815 31.1942 45.8153 32.1208 45.8153 33.2533V33.7165C45.8153 34.4887 45.2003 35.1064 44.4316 35.1064C43.6629 35.1064 43.0479 34.4887 43.0479 33.7165V33.2533C43.0479 32.1208 42.3817 31.1942 41.5105 31.1942C40.6393 31.1942 39.973 32.1208 39.973 33.2533V33.7165C39.973 34.4887 39.3581 35.1064 38.5894 35.1064C37.8206 35.1064 37.2057 34.4887 37.2057 33.7165V33.2533C37.2057 32.1208 36.5395 31.1942 35.6682 31.1942C34.797 31.1942 34.1308 32.1208 34.1308 33.2533V33.7165C34.1308 34.4887 33.5159 35.1064 32.7471 35.1064C31.9784 35.1064 31.3635 34.4887 31.3635 33.7165V33.2533C31.3635 32.1208 30.646 31.1942 29.826 31.1942C28.9548 31.1942 28.2886 32.1208 28.2886 33.2533V33.7165C28.2886 34.4887 27.6736 35.1064 26.9049 35.1064C26.1362 35.1064 25.5213 34.4887 25.5213 33.7165V33.2533C25.5213 32.1208 24.855 31.1942 23.9838 31.1942C23.1126 31.1942 22.4464 32.1208 22.4464 33.2533V33.7165C22.4464 34.4887 21.8314 35.1064 21.0627 35.1064H20.909C19.884 35.1064 19.0128 34.2313 19.0128 33.2018V31.4516H18.5516C17.8341 31.4516 17.2192 30.8854 17.2192 30.1647C17.2192 29.4441 17.7829 28.8264 18.5516 28.8264H19.0641C19.3716 20.1784 26.1362 13.2292 34.6945 12.7145L35.002 10.1922C32.8496 9.83185 31.0047 8.08167 30.7485 5.61084C30.5435 3.55182 31.6197 1.54427 33.4646 0.566232C34.0283 0.257378 34.5921 0.102951 35.207 0C33.1059 1.18394 32.1834 4.0151 33.6184 6.3315C34.4896 7.77282 36.232 8.59643 37.9231 8.39053C39.0506 8.2361 39.973 7.77282 40.6905 7.00069C40.1268 8.39053 38.9993 9.47152 37.5132 9.98627C37.1544 10.0892 36.7957 10.1922 36.437 10.1922L36.7444 12.663C45.3028 13.1778 52.0674 20.127 52.3749 28.7749H52.8874C53.5536 28.8264 54.1173 29.4441 54.1173 30.1647Z" fill="#1188DE"/>
<path d="M39.973 5.12842C43.4111 4.12886 44.4571 2.99574 45.0787 -1.13608e-05C45.7807 3.00851 46.8585 4.15906 50.1844 5.12842C46.904 5.82207 45.7748 6.93502 45.0787 10.2568C44.3877 6.84267 43.2964 5.691 39.973 5.12842Z" fill="#FFBD3E"/>
<path d="M1.63992 40.5627H2.0499C2.92111 40.5627 3.68982 41.2834 3.68982 42.21C3.68982 43.085 2.97235 43.8572 2.0499 43.8572H1.63992C0.768712 43.8572 0 43.1365 0 42.21C0 41.2834 0.717465 40.5627 1.63992 40.5627ZM1.79366 45.9677H1.89616C2.86986 45.9677 3.68982 46.7398 3.68982 47.7693V57.3953C3.68982 58.3733 2.92111 59.1969 1.89616 59.1969H1.79366C0.81996 59.1969 0 58.4248 0 57.3953V47.7179C0 46.7398 0.768712 45.9677 1.79366 45.9677Z" fill="#EFEFEF"/>
<path d="M7.7896 55.1819C8.30208 55.1819 8.71206 55.4393 9.01954 55.9026C9.42952 56.5203 10.1982 56.8291 11.1719 56.8291C12.5044 56.8291 13.0168 56.3659 13.0168 55.5423C13.0168 54.7186 12.4531 54.3583 10.557 53.895C6.30343 52.814 5.58596 51.5272 5.58596 49.674C5.58596 47.718 6.96964 45.6589 10.9157 45.6589C12.7606 45.6589 14.0418 46.1222 14.913 46.8429C16.0404 47.7694 15.3742 49.6226 13.8881 49.6226C13.3756 49.6226 12.9143 49.3652 12.6069 48.9534C12.3506 48.5416 11.7869 48.2327 10.762 48.2327C9.58326 48.2327 9.17328 48.7475 9.17328 49.3652C9.17328 50.0344 9.58326 50.3432 11.6844 50.858C16.0404 51.8875 16.6554 53.3803 16.6554 55.3364C16.6554 57.4983 15.0155 59.5059 11.0182 59.5059C8.50707 59.5059 6.91839 58.7337 5.99594 57.5498C5.27848 56.6232 5.94469 55.2334 7.12338 55.2334H7.7896V55.1819Z" fill="#EFEFEF"/>
<path d="M18.2953 57.2923V42.3644C18.2953 41.3349 19.1153 40.5627 20.089 40.5627C21.114 40.5627 21.8827 41.3864 21.8827 42.3644V57.2923C21.8827 58.3218 21.0627 59.094 20.089 59.094C19.1153 59.1454 18.2953 58.3218 18.2953 57.2923Z" fill="#EFEFEF"/>
<path d="M35.2583 55.7482C35.2583 56.7262 35.3095 58.0131 35.3608 58.6823C35.3608 58.9396 35.207 59.1455 34.9508 59.1455H32.2859C32.0809 59.1455 31.9272 58.9911 31.8759 58.7852C31.8247 58.4764 31.4659 58.3219 31.2097 58.5278C30.646 59.0426 29.7235 59.4544 28.0836 59.4544C24.9063 59.4544 23.5738 57.3439 23.5738 55.3363C23.5738 52.3508 25.9825 50.9609 29.826 50.9609H31.261C31.4659 50.9609 31.6709 50.755 31.6709 50.5491V50.1888C31.6709 49.2622 31.3122 48.3357 29.6723 48.3357C28.3399 48.3357 27.8786 48.8504 27.7249 49.6226C27.6736 49.8285 27.5199 49.9314 27.3149 49.9314H24.65C24.3938 49.9314 24.1888 49.674 24.2401 49.4166C24.5988 47.3061 26.085 45.6589 29.826 45.7104C33.3621 45.7104 35.2583 47.1002 35.2583 50.2403V55.7482ZM31.7222 53.1229C31.4147 53.1229 30.6972 53.1229 30.236 53.1229C28.0324 53.1229 27.2124 53.7921 27.2124 55.079C27.2124 56.057 27.7761 56.8291 29.1086 56.8291C31.4147 56.8291 31.7222 55.2334 31.7222 53.4832V53.1229Z" fill="#EFEFEF"/>
<path d="M37.8206 49.3651C37.8206 48.5415 37.8206 47.7179 37.8206 46.8943C37.8206 46.3796 38.2306 45.9678 38.7431 45.9678H40.8955C41.1005 45.9678 41.3055 46.1222 41.3055 46.3281C41.3055 46.3796 41.3055 46.431 41.3055 46.534C41.3567 46.8943 41.7667 47.0487 42.0229 46.7914C42.6892 46.1222 43.6116 45.6589 45.0465 45.6589C46.6352 45.6589 47.6089 46.3281 48.1726 47.1517C48.3264 47.3576 48.6339 47.3576 48.8389 47.1517C49.6076 46.2766 50.6838 45.6074 52.4774 45.6074C54.7836 45.6074 56.6285 46.9973 56.6285 50.4461V57.2924C56.6285 58.2704 55.8598 59.094 54.8348 59.094C53.8611 59.094 53.0411 58.3219 53.0411 57.2924V50.9609C53.0411 49.7769 52.6312 48.593 51.145 48.593C49.6076 48.593 48.9926 49.571 48.9926 51.6301V57.3953C48.9926 58.3734 48.2239 59.197 47.1989 59.197C46.2252 59.197 45.4053 58.4249 45.4053 57.3953V51.0638C45.4053 49.674 45.0465 48.593 43.5091 48.593C42.0229 48.593 41.3567 49.5196 41.3567 51.7845V57.3439C41.3567 58.3219 40.588 59.1455 39.5631 59.1455H39.5118C38.5381 59.1455 37.7181 58.3734 37.7181 57.3439V49.3651H37.8206Z" fill="#EFEFEF"/>
<path d="M60.7795 40.5627H61.1895C62.0607 40.5627 62.8294 41.2834 62.8294 42.21C62.8294 43.085 62.1119 43.8572 61.1895 43.8572H60.7795C59.9083 43.8572 59.1396 43.1365 59.1396 42.21C59.1908 41.2834 59.9083 40.5627 60.7795 40.5627ZM60.9845 45.9677C62.0094 45.9677 62.7781 46.7913 62.7781 47.7693V57.2923C62.7781 58.3218 61.9582 59.094 60.9845 59.094C59.9595 59.094 59.1908 58.2704 59.1908 57.2923V47.7693C59.1908 46.7913 60.0108 45.9677 60.9845 45.9677Z" fill="#EFEFEF"/>
<path d="M74.1551 54.8731C75.5388 54.8731 76.3587 56.5203 75.4363 57.6013C74.5138 58.6823 73.0277 59.4544 70.824 59.4544C66.7242 59.4544 64.6231 56.6233 64.6231 52.6596C64.6231 48.7475 66.9805 45.6589 70.9778 45.6589C73.2839 45.6589 74.7188 46.534 75.59 47.5635C76.4612 48.6445 75.6925 50.2917 74.3088 50.2917C73.6939 50.2917 73.1814 49.9829 72.8739 49.4681C72.5152 48.8504 71.9515 48.4901 70.9265 48.4901C69.2866 48.4901 68.3129 49.9314 68.3129 52.5052C68.3129 55.2849 69.2866 56.5718 70.8753 56.5718C71.7465 56.5718 72.3614 56.2114 72.7202 55.6452C73.0789 55.1819 73.5914 54.8731 74.1551 54.8731Z" fill="#EFEFEF"/>
<path d="M19.3715 72.8894C19.5765 73.6101 20.089 74.0734 21.0115 74.0734C21.9852 74.0734 22.3951 73.6616 22.3951 73.0438C22.3951 72.4261 22.0877 72.1173 20.8065 71.8084C18.9103 71.3451 18.5003 70.7789 18.5003 69.8524C18.5003 68.9258 19.2178 67.9478 20.909 67.9478C22.6514 67.9478 23.3176 68.9258 23.4201 69.9038H22.2926C22.1902 69.492 21.8827 68.8743 20.8577 68.8743C19.9353 68.8743 19.6278 69.3376 19.6278 69.7494C19.6278 70.2642 19.884 70.5215 21.114 70.7789C23.1126 71.2422 23.5226 71.9629 23.5226 72.9409C23.5226 74.1248 22.6001 74.9484 20.9602 74.9484C19.2178 74.9484 18.3978 74.0734 18.1929 72.8894H19.3715Z" fill="#1188DE"/>
<path d="M29.9285 72.7865C29.621 73.919 28.8523 75 27.1612 75C25.3162 75 24.1888 73.6616 24.1888 71.5511C24.1888 69.6465 25.265 67.9993 27.2636 67.9993C29.1598 67.9993 29.826 69.3891 29.9285 70.2127H28.8011C28.6473 69.5435 28.1861 68.9258 27.2636 68.9258C26.085 68.9258 25.4187 69.9553 25.4187 71.4481C25.4187 72.9924 26.085 74.0219 27.2124 74.0219C28.0324 74.0219 28.5448 73.5586 28.8011 72.7865H29.9285Z" fill="#1188DE"/>
<path d="M32.1322 65.1167V69.0803C32.4909 68.5141 33.0546 67.9479 34.2333 67.9479C35.3095 67.9479 36.4882 68.5141 36.4882 70.5216V74.7941H35.3608V70.7275C35.3608 69.5951 34.8995 68.9774 33.9258 68.9774C32.7471 68.9774 32.1834 69.7495 32.1834 71.1908V74.8456H31.056V65.1682H32.1322V65.1167Z" fill="#1188DE"/>
<path d="M43.7653 71.4481C43.7653 73.3527 42.6891 74.9484 40.6392 74.9484C38.7431 74.9484 37.5644 73.4557 37.5644 71.4481C37.5644 69.492 38.6918 67.9478 40.6905 67.9478C42.5354 67.9478 43.7653 69.3376 43.7653 71.4481ZM38.7431 71.4996C38.7431 72.9924 39.4606 74.0219 40.6905 74.0219C41.9204 74.0219 42.5866 72.9924 42.5866 71.4996C42.5866 70.0068 41.9204 68.9773 40.6392 68.9773C39.4093 68.9258 38.7431 69.9553 38.7431 71.4996Z" fill="#1188DE"/>
<path d="M50.6838 71.4481C50.6838 73.3527 49.6076 74.9484 47.5577 74.9484C45.6615 74.9484 44.4828 73.4557 44.4828 71.4481C44.4828 69.492 45.6103 67.9478 47.6089 67.9478C49.5051 67.9478 50.6838 69.3376 50.6838 71.4481ZM45.6615 71.4996C45.6615 72.9924 46.379 74.0219 47.6089 74.0219C48.8388 74.0219 49.5051 72.9924 49.5051 71.4996C49.5051 70.0068 48.8388 68.9773 47.5577 68.9773C46.3277 68.9258 45.6615 69.9553 45.6615 71.4996Z" fill="#1188DE"/>
<path d="M51.8112 74.8456V65.1682H52.9386V74.8456H51.8112Z" fill="#1188DE"/>
</svg>
