<svg width="65" height="64" viewBox="0 0 65 64" fill="none" xmlns="http://www.w3.org/2000/svg">
<path d="M46.1024 25.7406C46.1024 26.3555 45.6222 26.8387 44.9673 26.8387H44.5744V28.3322C44.5744 29.2107 43.8322 29.9574 42.9591 29.9574H42.8281C42.1732 29.9574 41.6493 29.4303 41.6493 28.7714V28.3761C41.6493 27.4097 41.0818 26.6191 40.3396 26.6191C39.5974 26.6191 39.0299 27.4097 39.0299 28.3761V28.7714C39.0299 29.4303 38.506 29.9574 37.8511 29.9574C37.1963 29.9574 36.6724 29.4303 36.6724 28.7714V28.3761C36.6724 27.4097 36.1048 26.6191 35.3626 26.6191C34.6205 26.6191 34.0529 27.4097 34.0529 28.3761V28.7714C34.0529 29.4303 33.529 29.9574 32.8742 29.9574C32.2193 29.9574 31.6954 29.4303 31.6954 28.7714V28.3761C31.6954 27.4097 31.1279 26.6191 30.3857 26.6191C29.6435 26.6191 29.0759 27.4097 29.0759 28.3761V28.7714C29.0759 29.4303 28.5521 29.9574 27.8972 29.9574C27.2423 29.9574 26.7184 29.4303 26.7184 28.7714V28.3761C26.7184 27.4097 26.1072 26.6191 25.4087 26.6191C24.6665 26.6191 24.099 27.4097 24.099 28.3761V28.7714C24.099 29.4303 23.5751 29.9574 22.9202 29.9574C22.2654 29.9574 21.7415 29.4303 21.7415 28.7714V28.3761C21.7415 27.4097 21.1739 26.6191 20.4317 26.6191C19.6896 26.6191 19.122 27.4097 19.122 28.3761V28.7714C19.122 29.4303 18.5981 29.9574 17.9433 29.9574H17.8123C16.9391 29.9574 16.197 29.2107 16.197 28.3322V26.8387H15.804C15.1928 26.8387 14.6689 26.3555 14.6689 25.7406C14.6689 25.1256 15.1492 24.5985 15.804 24.5985H16.2406C16.5026 17.2189 22.2654 11.2889 29.5562 10.8497L29.8181 8.69732C27.9845 8.38984 26.4128 6.89636 26.1945 4.78792C26.0199 3.03089 26.9367 1.31778 28.5084 0.483185C28.9886 0.219629 29.4689 0.0878518 29.9928 0C28.2028 1.0103 27.417 3.42622 28.6394 5.40288C29.3815 6.63281 30.8659 7.33562 32.3066 7.15992C33.2671 7.02814 34.0529 6.63281 34.6641 5.97392C34.1839 7.15992 33.2234 8.08236 31.9573 8.52162C31.6517 8.60947 31.3461 8.69732 31.0405 8.69732L31.3025 10.8058C38.5933 11.245 44.3561 17.175 44.618 24.5546H45.0546C45.6222 24.5985 46.1024 25.1256 46.1024 25.7406Z" fill="#008B43"/>
<path d="M34.053 4.37625C36.9819 3.5233 37.873 2.55637 38.4025 -8.78851e-06C39.0006 2.56726 39.9187 3.54907 42.752 4.37625C39.9575 4.96817 38.9955 5.91788 38.4025 8.75251C37.8138 5.83908 36.8841 4.85632 34.053 4.37625Z" fill="#FFBD3E"/>
<path d="M1.39704 34.6136H1.7463C2.48848 34.6136 3.14335 35.2285 3.14335 36.0192C3.14335 36.766 2.53214 37.4248 1.7463 37.4248H1.39704C0.654864 37.4248 0 36.8099 0 36.0192C0 35.2285 0.611206 34.6136 1.39704 34.6136ZM1.52802 39.2258H1.61533C2.44482 39.2258 3.14335 39.8847 3.14335 40.7632V48.9773C3.14335 49.8119 2.48848 50.5148 1.61533 50.5148H1.52802C0.698521 50.5148 0 49.8559 0 48.9773V40.7193C0 39.8847 0.654864 39.2258 1.52802 39.2258Z" fill="#282828"/>
<path d="M6.63582 47.0885C7.0724 47.0885 7.42166 47.3082 7.6836 47.7035C8.03286 48.2306 8.68773 48.4942 9.51722 48.4942C10.6523 48.4942 11.0889 48.0988 11.0889 47.396C11.0889 46.6932 10.6087 46.3857 8.99333 45.9904C5.36975 45.0679 4.75854 43.9698 4.75854 42.3885C4.75854 40.7193 5.9373 38.9622 9.29893 38.9622C10.8706 38.9622 11.962 39.3576 12.7042 39.9725C13.6647 40.7632 13.0971 42.3445 11.8311 42.3445C11.3945 42.3445 11.0016 42.1249 10.7396 41.7735C10.5213 41.4221 10.0411 41.1585 9.16796 41.1585C8.16384 41.1585 7.81458 41.5978 7.81458 42.1249C7.81458 42.696 8.16384 42.9595 9.9538 43.3988C13.6647 44.2773 14.1886 45.5511 14.1886 47.2203C14.1886 49.0652 12.7915 50.7783 9.38625 50.7783C7.24703 50.7783 5.89364 50.1194 5.10781 49.1091C4.4966 48.3185 5.06415 47.1325 6.06827 47.1325H6.63582V47.0885Z" fill="#282828"/>
<path d="M15.5857 48.8895V36.151C15.5857 35.2725 16.2842 34.6136 17.1137 34.6136C17.9869 34.6136 18.6417 35.3164 18.6417 36.151V48.8895C18.6417 49.768 17.9432 50.4269 17.1137 50.4269C16.2842 50.4708 15.5857 49.768 15.5857 48.8895Z" fill="#282828"/>
<path d="M30.0364 47.5717C30.0364 48.4063 30.0801 49.5045 30.1238 50.0755C30.1238 50.2951 29.9928 50.4708 29.7745 50.4708H27.5043C27.3297 50.4708 27.1987 50.3391 27.155 50.1634C27.1114 49.8998 26.8058 49.768 26.5875 49.9437C26.1073 50.383 25.3214 50.7344 23.9244 50.7344C21.2176 50.7344 20.0825 48.9334 20.0825 47.2203C20.0825 44.6726 22.1344 43.4866 25.4087 43.4866H26.6312C26.8058 43.4866 26.9804 43.3109 26.9804 43.1352V42.8277C26.9804 42.0371 26.6748 41.2464 25.2778 41.2464C24.1427 41.2464 23.7498 41.6857 23.6188 42.3446C23.5751 42.5203 23.4442 42.6081 23.2695 42.6081H20.9993C20.781 42.6081 20.6064 42.3885 20.6501 42.1689C20.9557 40.3679 22.2217 38.9623 25.4087 39.0062C28.4211 39.0062 30.0364 40.1922 30.0364 42.8717V47.5717ZM27.0241 45.3315C26.7621 45.3315 26.1509 45.3315 25.758 45.3315C23.8807 45.3315 23.1822 45.9026 23.1822 47.0007C23.1822 47.8353 23.6624 48.4942 24.7975 48.4942C26.7621 48.4942 27.0241 47.1325 27.0241 45.639V45.3315Z" fill="#282828"/>
<path d="M32.2194 42.1249C32.2194 41.4221 32.2194 40.7193 32.2194 40.0165C32.2194 39.5772 32.5687 39.2258 33.0052 39.2258H34.8389C35.0135 39.2258 35.1881 39.3576 35.1881 39.5333C35.1881 39.5772 35.1881 39.6211 35.1881 39.709C35.2318 40.0165 35.581 40.1482 35.7993 39.9286C36.3669 39.3576 37.1527 38.9622 38.3751 38.9622C39.7285 38.9622 40.558 39.5333 41.0382 40.2361C41.1692 40.4118 41.4311 40.4118 41.6058 40.2361C42.2606 39.4893 43.1774 38.9183 44.7055 38.9183C46.6701 38.9183 48.2417 40.1043 48.2417 43.0473V48.8895C48.2417 49.7241 47.5869 50.4269 46.7137 50.4269C45.8842 50.4269 45.1857 49.768 45.1857 48.8895V43.4866C45.1857 42.4763 44.8364 41.466 43.5704 41.466C42.2606 41.466 41.7367 42.3006 41.7367 44.0576V48.9773C41.7367 49.8119 41.0819 50.5147 40.2087 50.5147C39.3792 50.5147 38.6807 49.8559 38.6807 48.9773V43.5744C38.6807 42.3885 38.3751 41.466 37.0654 41.466C35.7993 41.466 35.2318 42.2567 35.2318 44.1894V48.9334C35.2318 49.768 34.5769 50.4708 33.7038 50.4708H33.6601C32.8306 50.4708 32.1321 49.8119 32.1321 48.9334V42.1249H32.2194Z" fill="#282828"/>
<path d="M51.7779 34.6136H52.1272C52.8693 34.6136 53.5242 35.2285 53.5242 36.0192C53.5242 36.766 52.913 37.4248 52.1272 37.4248H51.7779C51.0357 37.4248 50.3809 36.8099 50.3809 36.0192C50.4245 35.2285 51.0357 34.6136 51.7779 34.6136ZM51.9525 39.2258C52.8257 39.2258 53.4805 39.9286 53.4805 40.7632V48.8895C53.4805 49.768 52.782 50.4269 51.9525 50.4269C51.0794 50.4269 50.4245 49.7241 50.4245 48.8895V40.7632C50.4245 39.9286 51.123 39.2258 51.9525 39.2258Z" fill="#282828"/>
<path d="M63.1725 46.825C64.3513 46.825 65.0498 48.2306 64.264 49.1531C63.4782 50.0755 62.2121 50.7344 60.3348 50.7344C56.8422 50.7344 55.0522 48.3185 55.0522 44.9362C55.0522 41.5978 57.0605 38.9622 60.4658 38.9622C62.4304 38.9622 63.6528 39.709 64.395 40.5875C65.1371 41.51 64.4823 42.9156 63.3035 42.9156C62.7796 42.9156 62.3431 42.652 62.0811 42.2128C61.7755 41.6857 61.2953 41.3782 60.4221 41.3782C59.0251 41.3782 58.1956 42.6081 58.1956 44.8044C58.1956 47.1764 59.0251 48.2745 60.3785 48.2745C61.1206 48.2745 61.6445 47.9671 61.9501 47.4839C62.2557 47.0885 62.6923 46.825 63.1725 46.825Z" fill="#282828"/>
<path d="M16.5027 62.199C16.6773 62.814 17.1139 63.2093 17.8997 63.2093C18.7292 63.2093 19.0785 62.8579 19.0785 62.3308C19.0785 61.8037 18.8165 61.5401 17.7251 61.2766C16.1097 60.8813 15.7605 60.3981 15.7605 59.6074C15.7605 58.8167 16.3717 57.9821 17.8124 57.9821C19.2967 57.9821 19.8643 58.8167 19.9516 59.6513H18.9911C18.9038 59.2999 18.6419 58.7728 17.7687 58.7728C16.9829 58.7728 16.7209 59.1681 16.7209 59.5196C16.7209 59.9588 16.9392 60.1784 17.987 60.3981C19.6897 60.7934 20.0389 61.4084 20.0389 62.243C20.0389 63.2533 19.2531 63.9561 17.856 63.9561C16.3717 63.9561 15.6732 63.2093 15.4985 62.199H16.5027Z" fill="#008B43"/>
<path d="M25.4961 62.1112C25.2341 63.0775 24.5793 64 23.1386 64C21.5669 64 20.6064 62.8579 20.6064 61.057C20.6064 59.4317 21.5233 58.0261 23.2259 58.0261C24.8412 58.0261 25.4088 59.2121 25.4961 59.9149H24.5356C24.4047 59.3438 24.0117 58.8167 23.2259 58.8167C22.2218 58.8167 21.6542 59.6953 21.6542 60.9691C21.6542 62.2869 22.2218 63.1654 23.1822 63.1654C23.8808 63.1654 24.3173 62.7701 24.5356 62.1112H25.4961Z" fill="#008B43"/>
<path d="M27.3734 55.5662V58.9485C27.679 58.4653 28.1592 57.9821 29.1633 57.9821C30.0801 57.9821 31.0842 58.4653 31.0842 60.1784V63.8243H30.1238V60.3541C30.1238 59.3878 29.7309 58.8607 28.9014 58.8607C27.8972 58.8607 27.417 59.5196 27.417 60.7495V63.8682H26.4565V55.6101H27.3734V55.5662Z" fill="#008B43"/>
<path d="M37.2838 60.9691C37.2838 62.5944 36.367 63.9561 34.6207 63.9561C33.0053 63.9561 32.0012 62.6822 32.0012 60.9691C32.0012 59.2999 32.9617 57.9821 34.6643 57.9821C36.236 57.9821 37.2838 59.1681 37.2838 60.9691ZM33.0053 61.013C33.0053 62.2869 33.6165 63.1654 34.6643 63.1654C35.7121 63.1654 36.2797 62.2869 36.2797 61.013C36.2797 59.7392 35.7121 58.8607 34.6207 58.8607C33.5729 58.8167 33.0053 59.6953 33.0053 61.013Z" fill="#008B43"/>
<path d="M43.1773 60.9691C43.1773 62.5944 42.2605 63.9561 40.5142 63.9561C38.8989 63.9561 37.8948 62.6822 37.8948 60.9691C37.8948 59.2999 38.8552 57.9821 40.5579 57.9821C42.1732 57.9821 43.1773 59.1681 43.1773 60.9691ZM38.8989 61.013C38.8989 62.2869 39.5101 63.1654 40.5579 63.1654C41.6057 63.1654 42.1732 62.2869 42.1732 61.013C42.1732 59.7392 41.6057 58.8607 40.5142 58.8607C39.4664 58.8167 38.8989 59.6953 38.8989 61.013Z" fill="#008B43"/>
<path d="M44.1379 63.8682V55.6102H45.0984V63.8682H44.1379Z" fill="#008B43"/>
</svg>
